<svg width="34" height="36" viewBox="0 0 34 36" fill="none" xmlns="http://www.w3.org/2000/svg">
<rect x="0.5" y="0.5" width="33" height="35" rx="2.5" fill="white"/>
<path d="M8 8.75H10C10.6904 8.75 11.25 9.30964 11.25 10V26C11.25 26.6904 10.6904 27.25 10 27.25H8C7.30964 27.25 6.75 26.6904 6.75 26V10C6.75 9.30964 7.30964 8.75 8 8.75Z" stroke="#E57200" stroke-width="1.5" stroke-linecap="round" stroke-linejoin="round"/>
<path d="M16 8.75H18C18.6904 8.75 19.25 9.30964 19.25 10V26C19.25 26.6904 18.6904 27.25 18 27.25H16C15.3096 27.25 14.75 26.6904 14.75 26V10C14.75 9.30964 15.3096 8.75 16 8.75Z" stroke="#E57200" stroke-width="1.5" stroke-linecap="round" stroke-linejoin="round"/>
<path d="M24 8.75H26C26.6904 8.75 27.25 9.30964 27.25 10V26C27.25 26.6904 26.6904 27.25 26 27.25H24C23.3096 27.25 22.75 26.6904 22.75 26V10C22.75 9.30964 23.3096 8.75 24 8.75Z" stroke="#E57200" stroke-width="1.5" stroke-linecap="round" stroke-linejoin="round"/>
<rect x="0.5" y="0.5" width="33" height="35" rx="2.5" stroke="#E57200"/>
</svg>
