<svg width="16" height="14" viewBox="0 0 16 14" fill="none" xmlns="http://www.w3.org/2000/svg">
<path d="M13.6133 2.05335C13.2789 1.71773 12.8815 1.45144 12.4439 1.26974C12.0063 1.08804 11.5371 0.994507 11.0633 0.994507C10.5895 0.994507 10.1204 1.08804 9.68278 1.26974C9.2452 1.45144 8.84778 1.71773 8.51333 2.05335L8 2.57335L7.48666 2.05335C7.15221 1.71773 6.7548 1.45144 6.31721 1.26974C5.87962 1.08804 5.41047 0.994507 4.93666 0.994507C4.46285 0.994507 3.9937 1.08804 3.55612 1.26974C3.11853 1.45144 2.72112 1.71773 2.38666 2.05335C0.97333 3.46668 0.886663 5.85335 2.66666 7.66668L8 13L13.3333 7.66668C15.1133 5.85335 15.0267 3.46668 13.6133 2.05335Z" fill="#E95B1B" stroke="#E95B1B" stroke-width="1.5" stroke-linecap="round" stroke-linejoin="round"/>
</svg>
