<svg width="24" height="24" viewBox="0 0 24 24" fill="none" xmlns="http://www.w3.org/2000/svg">
<path d="M20.5714 20.3077V11.3077M3.42857 11.3077V20.3077M2 21H22M17.646 3H6.35402C5.38125 3 4.50268 3.51923 4.125 4.31798L2.19196 8.40865C1.54107 9.78505 2.62187 11.3445 4.29866 11.3942H4.38795C5.78973 11.3942 6.92589 10.3047 6.92589 9.13428C6.92589 10.3025 8.0625 11.3942 9.46429 11.3942C10.8661 11.3942 12 10.3826 12 9.13428C12 10.3025 13.1362 11.3942 14.5379 11.3942C15.9397 11.3942 17.0763 10.3826 17.0763 9.13428C17.0763 10.3826 18.2125 11.3942 19.6143 11.3942H19.7013C21.3781 11.3436 22.4589 9.78418 21.808 8.40865L19.875 4.31798C19.4973 3.51923 18.6188 3 17.646 3Z" stroke="#E95B1B" stroke-width="1.5" stroke-linecap="round" stroke-linejoin="round"/>
<path d="M10 21V16.5C10 15.9477 10.4477 15.5 11 15.5H14C14.5523 15.5 15 15.9477 15 16.5V21" stroke="#E95B1B" stroke-width="1.5"/>
</svg>
