<svg width="20" height="20" viewBox="0 0 20 20" fill="none" xmlns="http://www.w3.org/2000/svg">
<path d="M17.0166 3.81667C16.5986 3.39715 16.1018 3.06428 15.5548 2.83716C15.0078 2.61003 14.4214 2.49312 13.8291 2.49312C13.2369 2.49312 12.6504 2.61003 12.1034 2.83716C11.5565 3.06428 11.0597 3.39715 10.6416 3.81667L9.99995 4.46667L9.35828 3.81667C8.94022 3.39715 8.44345 3.06428 7.89647 2.83716C7.34948 2.61003 6.76305 2.49312 6.17078 2.49312C5.57852 2.49312 4.99208 2.61003 4.4451 2.83716C3.89812 3.06428 3.40135 3.39715 2.98328 3.81667C1.21662 5.58333 1.10828 8.56667 3.33328 10.8333L9.99995 17.5L16.6666 10.8333C18.8916 8.56667 18.7833 5.58333 17.0166 3.81667Z" stroke="#767676" stroke-width="1.5" stroke-linecap="round" stroke-linejoin="round"/>
</svg>
