<svg width="24" height="24" viewBox="0 0 24 24" fill="none" xmlns="http://www.w3.org/2000/svg">
<path d="M20.4201 4.58002C19.9184 4.07659 19.3223 3.67716 18.6659 3.40461C18.0095 3.13206 17.3058 2.99176 16.5951 2.99176C15.8844 2.99176 15.1806 3.13206 14.5243 3.40461C13.8679 3.67716 13.2718 4.07659 12.7701 4.58002L12.0001 5.36002L11.2301 4.58002C10.7284 4.07659 10.1323 3.67716 9.47591 3.40461C8.81953 3.13206 8.1158 2.99176 7.40509 2.99176C6.69437 2.99176 5.99065 3.13206 5.33427 3.40461C4.67789 3.67716 4.08176 4.07659 3.58009 4.58002C1.46009 6.70002 1.33009 10.28 4.00009 13L12.0001 21L20.0001 13C22.6701 10.28 22.5401 6.70002 20.4201 4.58002Z" stroke="#767676" stroke-width="1.5" stroke-linecap="round" stroke-linejoin="round"/>
</svg>
