<svg width="46" height="52" viewBox="0 0 46 52" fill="none" xmlns="http://www.w3.org/2000/svg">
<path d="M40.7863 17.7862C40.7863 7.96675 32.8195 0 23 0C13.1806 0 5.21381 7.96675 5.21381 17.7862C2.66939 18.1074 0.273193 19.7625 0.273193 23.6162V32.9045C0.273193 37.2523 3.31167 38.8333 6.20193 38.8333H9.06749C9.61096 38.8333 10.0556 38.3886 10.0556 37.8451V18.7126C10.0556 18.1691 9.61096 17.7245 9.06749 17.7245H7.19006C7.19006 8.99192 14.2675 1.91449 23 1.91449C31.7326 1.91449 38.81 8.99192 38.81 17.7245H36.9326C36.3891 17.7245 35.9445 18.1691 35.9445 18.7126V37.8081C35.9445 38.3515 36.3891 38.7962 36.9326 38.7962H38.81C38.5383 45.5896 35.2775 47.1705 28.7559 47.467V46.8124C28.7559 45.7254 27.8665 44.8361 26.7796 44.8361H20.5668C19.4798 44.8361 18.5905 45.7254 18.5905 46.8124V50.0238C18.5905 51.1107 19.4798 52 20.5668 52H26.8043C27.8912 52 28.7806 51.1107 28.7806 50.0238V49.4556C35.0428 49.1715 40.4651 47.8746 40.7863 38.7591C43.3307 38.438 45.7269 36.7829 45.7269 32.9292V23.6409C45.7269 19.7501 43.3307 18.1074 40.7863 17.7862ZM8.07937 19.639V36.8323H6.15253C4.69505 36.8323 2.20003 36.3135 2.20003 32.8798V23.5914C2.20003 20.1824 4.65799 19.639 6.15253 19.639H8.07937ZM26.8043 48.5292V50.0238H20.5668V46.8124H26.8043V48.5292ZM43.7506 32.9045C43.7506 36.3135 41.2927 36.857 39.7981 36.857H37.9207V19.7007H39.8475C41.305 19.7007 43.8 20.2195 43.8 23.6532L43.7506 32.9045Z" fill="#E95B1B"/>
</svg>
