<svg width="52" height="52" viewBox="0 0 52 52" fill="none" xmlns="http://www.w3.org/2000/svg">
<g clip-path="url(#clip0_203_47003)">
<path d="M49.9992 11.3446L26.396 -0.0506836C26.2742 -0.111621 26.1421 -0.14209 26 -0.14209C25.8578 -0.14209 25.7257 -0.111621 25.6039 -0.0506836L2.00073 11.3446C1.68589 11.497 1.49292 11.8118 1.49292 12.1571V39.8329C1.49292 40.1782 1.69605 40.5032 2.00073 40.6454L25.614 52.0407C25.7359 52.1017 25.8679 52.1321 26.0101 52.1321C26.1421 52.1321 26.2843 52.1017 26.4062 52.0407L50.0195 40.6454C50.3343 40.4931 50.5273 40.1782 50.5273 39.8329V12.1571C50.5171 11.8118 50.314 11.497 49.9992 11.3446ZM36.2679 27.2595V19.6017L40.1578 17.7228V25.3907L36.2679 27.2595ZM13.8328 7.67822L17.9664 5.67744L39.457 16.0571L35.3132 18.0579L13.8328 7.67822ZM41.539 15.0517C41.5085 15.0313 41.4882 15.0212 41.4578 15.011L20.0179 4.66182L26 1.76729L47.5312 12.1571L41.539 15.0517ZM22.7398 21.9884C22.5265 22.4353 22.7093 22.9837 23.1664 23.197L25.096 24.1313V49.7962L3.29058 39.2743V13.5993L19.9062 21.6228C20.0281 21.6837 20.1601 21.7142 20.3023 21.7142C20.6476 21.7142 20.9726 21.511 21.1148 21.2063C21.3281 20.7595 21.1453 20.211 20.6882 19.9978L4.4687 12.1571L11.7 8.66338L34.45 19.6423V28.7017C34.45 29.0165 34.6124 29.3009 34.8765 29.4735C35.0187 29.5649 35.1914 29.6157 35.3539 29.6157C35.4859 29.6157 35.6281 29.5853 35.75 29.5243L41.4476 26.772C41.7625 26.6196 41.9554 26.3048 41.9554 25.9595V16.8595L48.689 13.6095V39.2743L26.9039 49.7962V24.1212L32.0937 21.6126C32.5406 21.3993 32.7335 20.8509 32.5203 20.404C32.3679 20.0892 32.0531 19.8962 31.7078 19.8962C31.5757 19.8962 31.4335 19.9267 31.3117 19.9876L26 22.547L23.9484 21.5618C23.8265 21.5009 23.6945 21.4704 23.5523 21.4704C23.207 21.4704 22.8921 21.6735 22.7398 21.9884Z" fill="#F97537"/>
<path d="M9.49614 36.2784L6.03286 34.6026C5.91099 34.5417 5.77896 34.5112 5.63677 34.5112C5.29146 34.5112 4.96646 34.7144 4.82427 35.019C4.61099 35.4659 4.7938 36.0144 5.25083 36.2276L8.71411 37.9034C8.83599 37.9644 8.96802 37.9948 9.11021 37.9948C9.45552 37.9948 9.78052 37.7917 9.92271 37.487C10.136 37.0401 9.95317 36.4917 9.49614 36.2784Z" fill="#F97537"/>
<path d="M12.6852 34.2065L6.03286 30.9972C5.91099 30.9362 5.77896 30.9058 5.63677 30.9058C5.29146 30.9058 4.96646 31.1089 4.82427 31.4136C4.61099 31.8604 4.7938 32.4089 5.25083 32.6222L11.9032 35.8315C12.025 35.8925 12.1571 35.923 12.2993 35.923C12.6446 35.923 12.9696 35.7198 13.1118 35.4151C13.2133 35.2019 13.2336 34.9479 13.1524 34.7245C13.0711 34.4909 12.9086 34.3081 12.6852 34.2065Z" fill="#F97537"/>
</g>
<defs>
<clipPath id="clip0_203_47003">
<rect width="52" height="52" fill="white"/>
</clipPath>
</defs>
</svg>
