<svg width="55" height="47" viewBox="0 0 55 47" fill="none" xmlns="http://www.w3.org/2000/svg">
<path d="M22.1501 1.22683C18.4645 4.57741 15.6165 8.3189 13.6061 12.4513C11.5958 16.5837 10.5906 20.381 10.5906 23.8433C11.4841 23.3965 12.7126 23.1732 14.2762 23.1732C17.2918 23.1732 19.8047 24.2342 21.8151 26.3562C23.8254 28.4783 24.8306 31.1587 24.8306 34.3977C24.8306 37.9716 23.6579 40.8755 21.3125 43.1092C19.0787 45.3429 16.2307 46.4598 12.7685 46.4598C8.97114 46.4598 5.95561 45.2871 3.72188 42.9416C1.59984 40.5962 0.538823 37.6365 0.538823 34.0626C0.538823 27.0263 1.82322 20.6602 4.392 14.9642C7.07247 9.26823 10.5906 4.80078 14.9464 1.56188C15.8398 0.780082 17.1801 0.389181 18.9671 0.389181C20.419 0.389181 21.48 0.668397 22.1501 1.22683ZM52.1379 1.22683C48.4522 4.57741 45.6042 8.3189 43.5939 12.4513C41.5835 16.5837 40.5784 20.381 40.5784 23.8433C41.4718 23.3965 42.7004 23.1732 44.264 23.1732C47.2795 23.1732 49.7925 24.2342 51.8028 26.3562C53.8132 28.4783 54.8184 31.1587 54.8184 34.3977C54.8184 37.9716 53.6456 40.8755 51.3002 43.1092C49.0665 45.3429 46.2185 46.4598 42.7562 46.4598C38.9589 46.4598 35.9434 45.2871 33.7096 42.9416C31.5876 40.5962 30.5266 37.6365 30.5266 34.0626C30.5266 27.0263 31.811 20.6602 34.3798 14.9642C37.0602 9.26823 40.5784 4.80078 44.9341 1.56188C45.8276 0.780082 47.1678 0.389181 48.9548 0.389181C50.4067 0.389181 51.4678 0.668397 52.1379 1.22683Z" fill="#E95B1B"/>
</svg>
