<svg width="60" height="60" viewBox="0 0 60 60" fill="none" xmlns="http://www.w3.org/2000/svg">
<path d="M54.6562 10.3594C46.4062 8.09766 38.0977 4.58203 30.6445 0.175781C30.2461 -0.0585938 29.7539 -0.0585938 29.3672 0.175781C21.6914 4.69922 13.8398 8.03906 5.34375 10.3594C4.79297 10.5117 4.41797 11.0039 4.41797 11.5781V24.4688C4.41797 37.7461 10.5469 46.5352 15.6797 51.5742C21.2109 57 27.6562 60 30 60C32.3438 60 38.7891 57 44.3203 51.5742C49.4648 46.5352 55.582 37.7461 55.582 24.4688V11.5781C55.582 11.0039 55.207 10.5117 54.6562 10.3594ZM53.0625 24.4688C53.0625 36.8672 47.3438 45.0703 42.5508 49.7695C37.1133 55.1016 31.2891 57.4688 30 57.4688C28.7109 57.4688 22.8867 55.1016 17.4492 49.7695C12.6562 45.082 6.9375 36.8789 6.9375 24.4688V12.5391C15.0586 10.2305 22.6172 7.01953 30 2.73047C37.1953 6.90234 45.1406 10.2773 53.0625 12.5391V24.4688Z" fill="#E95B1B"/>
<path d="M18.8086 12.3983C18.5508 11.7537 17.8242 11.4256 17.168 11.6834C14.918 12.574 12.5977 13.3943 10.2891 14.1092C9.76172 14.2732 9.41016 14.7654 9.41016 15.3162V20.1912C9.41016 20.8826 9.97266 21.4568 10.6758 21.4568C11.3789 21.4568 11.9414 20.8943 11.9414 20.1912V16.242C14.0156 15.574 16.0781 14.8358 18.1055 14.0389C18.75 13.7811 19.0664 13.0428 18.8086 12.3983Z" fill="#E95B1B"/>
<path d="M21.2109 12.6329C21.3749 12.6329 21.5507 12.5978 21.7148 12.5275L21.7382 12.5157C22.371 12.2345 22.664 11.4962 22.3827 10.8517C22.1015 10.2189 21.3515 9.92589 20.7187 10.2071L20.6952 10.2189C20.0507 10.5001 19.7695 11.2384 20.0507 11.8829C20.2616 12.3517 20.7187 12.6329 21.2109 12.6329Z" fill="#E95B1B"/>
<path d="M45.0352 40.6993C44.4493 40.3126 43.6642 40.4767 43.2892 41.0626C42.2462 42.6564 41.0274 44.1798 39.6563 45.5978C38.5313 46.7579 37.3126 47.8478 36.0352 48.8204C35.4845 49.2423 35.379 50.0392 35.8009 50.59C36.047 50.9181 36.422 51.0822 36.8087 51.0822C37.0782 51.0822 37.3477 51.0001 37.5704 50.8243C38.9532 49.7697 40.2657 48.6095 41.4727 47.3556C42.9493 45.8322 44.2735 44.1798 45.3985 42.4572C45.7852 41.8595 45.6212 41.0743 45.0352 40.6993Z" fill="#E95B1B"/>
<path d="M33.1171 50.7892L33.0468 50.8361C32.4492 51.1877 32.2382 51.9611 32.5898 52.5588C32.8242 52.9689 33.246 53.1916 33.6796 53.1916C33.8906 53.1916 34.1132 53.133 34.3124 53.0158L34.3945 52.9689C34.9921 52.6174 35.2031 51.8439 34.8515 51.2463C34.4882 50.6486 33.7148 50.4377 33.1171 50.7892Z" fill="#E95B1B"/>
<path d="M21.3984 27.4219C20.625 26.6484 19.5938 26.2148 18.4922 26.2148C17.3906 26.2148 16.3711 26.6367 15.5859 27.4219C13.9805 29.0273 13.9805 31.6289 15.5859 33.2227L23.0391 40.6758C23.8125 41.4492 24.8437 41.8828 25.9453 41.8828C27.0469 41.8828 28.0664 41.4609 28.8516 40.6758L44.4141 25.1133C46.0195 23.5078 46.0195 20.9063 44.4141 19.3125C43.6406 18.5391 42.6094 18.1055 41.5078 18.1055C40.4062 18.1055 39.3867 18.5273 38.6016 19.3125L25.9453 31.9687L21.3984 27.4219ZM40.3828 21.1055C40.6758 20.8125 41.0742 20.6484 41.4961 20.6484C41.918 20.6484 42.3164 20.8125 42.6094 21.1055C43.2305 21.7266 43.2305 22.7227 42.6094 23.3437L27.0703 38.8945C26.7773 39.1875 26.3789 39.3516 25.957 39.3516C25.5352 39.3516 25.1367 39.1875 24.8438 38.8945L17.3906 31.4414C16.7695 30.8203 16.7695 29.8242 17.3906 29.2031C17.6836 28.9102 18.082 28.7461 18.5039 28.7461C18.9258 28.7461 19.3242 28.9102 19.6172 29.2031L25.0547 34.6406C25.2891 34.875 25.6172 35.0156 25.9453 35.0156C26.2734 35.0156 26.6016 34.8867 26.8359 34.6406L40.3828 21.1055Z" fill="#E95B1B"/>
</svg>
