<svg width="52" height="52" viewBox="0 0 52 52" fill="none" xmlns="http://www.w3.org/2000/svg">
<path d="M48.3641 23.5017L47.0133 18.1188C47.3789 18.0376 47.6531 17.7126 47.6531 17.3267V16.4532C47.6531 14.5642 46.1195 13.0306 44.2305 13.0306H38.0961V11.2431C38.0961 10.3188 37.3445 9.55713 36.4102 9.55713H5.15937C4.23516 9.55713 3.47344 10.3087 3.47344 11.2431V26.0001C3.47344 26.447 3.83906 26.8126 4.28594 26.8126C4.73281 26.8126 5.09844 26.447 5.09844 26.0001V11.2329C5.09844 11.2024 5.11875 11.1821 5.14922 11.1821H36.4102C36.4406 11.1821 36.4609 11.2024 36.4609 11.2329V26.0001C36.4609 26.447 36.8266 26.8126 37.2734 26.8126C37.7203 26.8126 38.0859 26.447 38.0859 26.0001V25.0759H47.6938C48.8719 25.0759 49.8773 25.8478 50.2227 26.9243H47.6938C47.2469 26.9243 46.8813 27.2899 46.8813 27.7368V29.4735C46.8813 30.8853 48.0289 32.0228 49.4305 32.0228H50.3547V35.6079H48.2219C47.5211 33.5868 45.6016 32.1345 43.3469 32.1345C41.0922 32.1345 39.1727 33.5868 38.4719 35.6079H38.0758V29.4735C38.0758 29.0267 37.7102 28.661 37.2633 28.661C36.8164 28.661 36.4508 29.0267 36.4508 29.4735V35.6079H19.5813C18.8805 33.5868 16.9609 32.1345 14.7063 32.1345C12.4516 32.1345 10.532 33.5868 9.83125 35.6079H5.15937C5.12891 35.6079 5.10859 35.5876 5.10859 35.5571V33.7696H8.63281C9.07969 33.7696 9.44531 33.404 9.44531 32.9571C9.44531 32.5103 9.07969 32.1446 8.63281 32.1446H0.8125C0.365625 32.1446 0 32.5103 0 32.9571C0 33.404 0.365625 33.7696 0.8125 33.7696H3.47344V35.5571C3.47344 36.4813 4.225 37.2431 5.15937 37.2431H9.55703C9.55703 37.2634 9.55703 37.2837 9.55703 37.2938C9.55703 40.1376 11.8727 42.4532 14.7164 42.4532C17.5602 42.4532 19.8758 40.1376 19.8758 37.2938C19.8758 37.2735 19.8758 37.2532 19.8758 37.2431H38.2281C38.2281 37.2634 38.2281 37.2837 38.2281 37.2938C38.2281 40.1376 40.5438 42.4532 43.3875 42.4532C46.2313 42.4532 48.5469 40.1376 48.5469 37.2938C48.5469 37.2735 48.5469 37.2532 48.5469 37.2431H51.1875C51.6344 37.2431 52 36.8774 52 36.4306V27.747C52 25.5938 50.4156 23.8063 48.3641 23.5017ZM38.1063 14.6556H44.2406C45.2258 14.6556 46.0281 15.4579 46.0281 16.4431V16.4938H38.1063V14.6556ZM38.1063 23.4509V18.129H45.3375L46.668 23.4509H38.1063ZM14.7063 40.8181C12.7563 40.8181 11.182 39.2337 11.182 37.2938C11.182 35.354 12.7664 33.7696 14.7063 33.7696C16.6461 33.7696 18.2305 35.354 18.2305 37.2938C18.2305 39.2337 16.6562 40.8181 14.7063 40.8181ZM43.3672 40.8181C41.4172 40.8181 39.843 39.2337 39.843 37.2938C39.843 35.354 41.4273 33.7696 43.3672 33.7696C45.3172 33.7696 46.8914 35.354 46.8914 37.2938C46.8914 39.2337 45.3172 40.8181 43.3672 40.8181ZM50.375 30.3978H49.4508C48.943 30.3978 48.5266 29.9813 48.5266 29.4735V28.5493H50.375V30.3978Z" fill="#F97537"/>
<path d="M14.7062 35.6079C13.782 35.6079 13.0203 36.3595 13.0203 37.2938C13.0203 38.2282 13.7718 38.9798 14.7062 38.9798C15.6304 38.9798 16.3921 38.2282 16.3921 37.2938C16.3921 36.3595 15.6406 35.6079 14.7062 35.6079Z" fill="#F97537"/>
<path d="M43.3671 35.6079C42.4429 35.6079 41.6812 36.3595 41.6812 37.2938C41.6812 38.2282 42.4327 38.9798 43.3671 38.9798C44.3015 38.9798 45.053 38.2282 45.053 37.2938C45.053 36.3595 44.3015 35.6079 43.3671 35.6079Z" fill="#F97537"/>
<path d="M33.8203 32.1343H21.6531C21.2062 32.1343 20.8406 32.4999 20.8406 32.9468C20.8406 33.3937 21.2062 33.7593 21.6531 33.7593H33.8203C34.2671 33.7593 34.6328 33.3937 34.6328 32.9468C34.6328 32.4999 34.2671 32.1343 33.8203 32.1343Z" fill="#F97537"/>
<path d="M12.9696 28.6611H2.54932C2.10244 28.6611 1.73682 29.0268 1.73682 29.4736C1.73682 29.9205 2.10244 30.2861 2.54932 30.2861H12.9696C13.4165 30.2861 13.7821 29.9205 13.7821 29.4736C13.7821 29.0268 13.4267 28.6611 12.9696 28.6611Z" fill="#F97537"/>
<path d="M28.3157 17.6111C28.0009 17.2963 27.4829 17.2963 27.1681 17.6111L19.9267 24.8525L16.1587 21.0846C15.8438 20.7697 15.3259 20.7697 15.011 21.0846C14.6962 21.3994 14.6962 21.9174 15.011 22.2322L19.3579 26.5791C19.5204 26.7416 19.7235 26.8127 19.9368 26.8127C20.1501 26.8127 20.3532 26.7314 20.5157 26.5791L28.336 18.7588C28.6306 18.4439 28.6306 17.926 28.3157 17.6111Z" fill="#F97537"/>
</svg>
