<svg width="87" height="86" viewBox="0 0 87 86" fill="none" xmlns="http://www.w3.org/2000/svg">
<path d="M86.0726 1H1V85H86.0726V1Z" fill="white"/>
<g opacity="0.1">
<path opacity="0.1" d="M86.0725 83.0107V84.993H84.0649" stroke="#20263C" stroke-width="0.720954" stroke-miterlimit="10"/>
<path opacity="0.1" d="M80.2036 84.9951H4.94116" stroke="#20263C" stroke-width="0.720954" stroke-miterlimit="10" stroke-dasharray="4.16 4.16"/>
<path opacity="0.1" d="M3.00753 84.993H1V83.0107" stroke="#20263C" stroke-width="0.720954" stroke-miterlimit="10"/>
<path opacity="0.1" d="M1 79.1983V4.88477" stroke="#20263C" stroke-width="0.720954" stroke-miterlimit="10" stroke-dasharray="4.16 4.16"/>
<path opacity="0.1" d="M1 2.98222V1H3.00753" stroke="#20263C" stroke-width="0.720954" stroke-miterlimit="10"/>
<path opacity="0.1" d="M6.86865 1H82.1311" stroke="#20263C" stroke-width="0.720954" stroke-miterlimit="10" stroke-dasharray="4.16 4.16"/>
<path opacity="0.1" d="M84.0649 1H86.0725V2.98222" stroke="#20263C" stroke-width="0.720954" stroke-miterlimit="10"/>
<path opacity="0.1" d="M86.0723 6.78809V81.1082" stroke="#20263C" stroke-width="0.720954" stroke-miterlimit="10" stroke-dasharray="4.16 4.16"/>
</g>
<path d="M29.1055 63.1099L43.4967 53.7585L57.8801 63.1099L43.4967 19.501L29.1055 63.1099Z" fill="#414042"/>
<path d="M36.4665 33.376L20.4062 38.9819L32.9909 43.2871L36.4665 33.376Z" fill="#414042"/>
<path d="M66.5793 38.9819L50.519 33.376L53.9947 43.2871L66.5793 38.9819Z" fill="#414042"/>
</svg>
