<svg width="40" height="40" viewBox="0 0 40 40" fill="none" xmlns="http://www.w3.org/2000/svg">
<path d="M19.8179 4.65118C17.8179 4.65118 15.8179 5.65118 14.8179 7.48452C13.8199 7.22901 12.7729 7.23476 11.7778 7.50123C10.7827 7.76769 9.87295 8.28589 9.13618 9.00592C8.3994 9.72595 7.86043 10.6235 7.57116 11.6123C7.28189 12.601 7.25208 13.6476 7.48458 14.6512C5.81791 15.6512 4.65125 17.6512 4.65125 19.6512C4.65125 21.6512 5.81791 23.6512 7.48458 24.6512C6.98458 26.6512 7.48458 28.8178 9.15124 30.3178C10.4846 31.6512 12.6512 32.3178 14.6512 31.9845C15.6512 33.6512 17.6512 34.6512 19.6512 34.6512C21.6512 34.6512 23.6512 33.6512 24.6512 31.8178C26.6512 32.3178 28.8179 31.8178 30.3179 30.1512C31.6512 28.8178 32.3179 26.8179 31.9846 24.6512C33.6512 23.6512 34.6512 21.6512 34.6512 19.6512C34.6512 17.6512 33.6512 15.6512 31.8179 14.6512C32.3179 12.6512 31.8179 10.4845 30.1512 8.98452C29.4387 8.28106 28.5655 7.7617 27.6073 7.47131C26.649 7.18093 25.6344 7.12826 24.6512 7.31785C23.6512 5.65118 21.6512 4.65118 19.6512 4.65118H19.8179Z" stroke="#E95B1B" stroke-width="1.5" stroke-linecap="round" stroke-linejoin="round"/>
<path d="M13.5033 16.5983C13.5033 17.0996 13.6153 17.5583 13.8393 17.9743C14.074 18.3796 14.3993 18.705 14.8153 18.9503C15.2313 19.1956 15.7006 19.3183 16.2233 19.3183C16.7673 19.3183 17.242 19.1956 17.6473 18.9503C18.0633 18.705 18.3833 18.3796 18.6073 17.9743C18.842 17.5583 18.9593 17.0996 18.9593 16.5983C18.9593 16.097 18.842 15.6436 18.6073 15.2383C18.3833 14.8223 18.0633 14.4916 17.6473 14.2463C17.242 14.001 16.7673 13.8783 16.2233 13.8783C15.7006 13.8783 15.2313 14.001 14.8153 14.2463C14.3993 14.4916 14.074 14.8223 13.8393 15.2383C13.6153 15.6436 13.5033 16.097 13.5033 16.5983ZM14.9753 16.5983C14.9753 16.353 15.0286 16.129 15.1353 15.9263C15.242 15.7236 15.386 15.5636 15.5673 15.4463C15.7593 15.329 15.978 15.2703 16.2233 15.2703C16.49 15.2703 16.714 15.329 16.8953 15.4463C17.0766 15.5636 17.2206 15.7236 17.3273 15.9263C17.434 16.129 17.4873 16.353 17.4873 16.5983C17.4873 16.833 17.434 17.057 17.3273 17.2703C17.2206 17.473 17.0766 17.6383 16.8953 17.7663C16.714 17.8836 16.49 17.9423 16.2233 17.9423C15.978 17.9423 15.7593 17.8836 15.5673 17.7663C15.386 17.6383 15.242 17.473 15.1353 17.2703C15.0286 17.057 14.9753 16.833 14.9753 16.5983ZM20.1753 22.8063C20.1753 23.297 20.2926 23.7503 20.5273 24.1663C20.762 24.5823 21.082 24.913 21.4873 25.1583C21.9033 25.393 22.378 25.5103 22.9113 25.5103C23.4446 25.5103 23.914 25.393 24.3193 25.1583C24.7353 24.913 25.0553 24.5823 25.2793 24.1663C25.514 23.7503 25.6313 23.297 25.6313 22.8063C25.6313 22.2943 25.514 21.8356 25.2793 21.4303C25.0553 21.0143 24.7353 20.689 24.3193 20.4543C23.914 20.209 23.4446 20.0863 22.9113 20.0863C22.378 20.0863 21.9033 20.209 21.4873 20.4543C21.082 20.689 20.762 21.0143 20.5273 21.4303C20.2926 21.8356 20.1753 22.2943 20.1753 22.8063ZM21.6633 22.7903C21.6633 22.5556 21.7113 22.337 21.8073 22.1343C21.914 21.9316 22.058 21.7716 22.2393 21.6543C22.4313 21.5263 22.6553 21.4623 22.9113 21.4623C23.1673 21.4623 23.386 21.5263 23.5673 21.6543C23.7593 21.7716 23.9033 21.9316 23.9993 22.1343C24.106 22.337 24.1593 22.5556 24.1593 22.7903C24.1593 23.0356 24.106 23.2596 23.9993 23.4623C23.9033 23.665 23.7593 23.8303 23.5673 23.9583C23.386 24.0756 23.1673 24.1343 22.9113 24.1343C22.6553 24.1343 22.4313 24.0756 22.2393 23.9583C22.058 23.8303 21.914 23.665 21.8073 23.4623C21.7113 23.249 21.6633 23.025 21.6633 22.7903ZM22.5913 14.1023L14.8313 25.3023H16.5433L24.3033 14.1023H22.5913Z" fill="#E95B1B"/>
</svg>
